<svg width="99" height="93" viewBox="0 0 99 93" fill="none" xmlns="http://www.w3.org/2000/svg">
<g filter="url(#filter0_dd_35_1109)">
<path d="M43.9449 35.8074L34.3281 48.9222C33.578 49.9465 33.1263 51.1586 33.0228 52.424C32.9194 53.6893 33.1684 54.9586 33.7422 56.0912C34.3161 57.2237 35.1923 58.1752 36.2738 58.8403C37.3553 59.5053 38.5998 59.8579 39.8694 59.8589L59.1125 59.8589C60.3834 59.8609 61.6298 59.5102 62.7132 58.8458C63.7965 58.1814 64.6742 57.2294 65.2486 56.0957C65.8229 54.9621 66.0715 53.6913 65.9664 52.4248C65.8614 51.1583 65.407 49.9457 64.6538 48.9222L55.037 35.8074C54.3984 34.9372 53.5638 34.2296 52.6009 33.7419C51.638 33.2541 50.5738 33 49.4944 33C48.415 33 47.3508 33.2541 46.3878 33.7419C45.4249 34.2296 44.5904 34.9372 43.9518 35.8074H43.9449Z" fill="url(#paint0_linear_35_1109)"/>
</g>
<defs>
<filter id="filter0_dd_35_1109" x="0" y="0" width="98.9899" height="92.8589" filterUnits="userSpaceOnUse" color-interpolation-filters="sRGB">
<feFlood flood-opacity="0" result="BackgroundImageFix"/>
<feColorMatrix in="SourceAlpha" type="matrix" values="0 0 0 0 0 0 0 0 0 0 0 0 0 0 0 0 0 0 127 0" result="hardAlpha"/>
<feOffset dy="4"/>
<feGaussianBlur stdDeviation="2"/>
<feComposite in2="hardAlpha" operator="out"/>
<feColorMatrix type="matrix" values="0 0 0 0 0 0 0 0 0 0 0 0 0 0 0 0 0 0 0.11 0"/>
<feBlend mode="normal" in2="BackgroundImageFix" result="effect1_dropShadow_35_1109"/>
<feColorMatrix in="SourceAlpha" type="matrix" values="0 0 0 0 0 0 0 0 0 0 0 0 0 0 0 0 0 0 127 0" result="hardAlpha"/>
<feOffset/>
<feGaussianBlur stdDeviation="16.5"/>
<feComposite in2="hardAlpha" operator="out"/>
<feColorMatrix type="matrix" values="0 0 0 0 0.835294 0 0 0 0 0.227451 0 0 0 0 0.360784 0 0 0 1 0"/>
<feBlend mode="normal" in2="effect1_dropShadow_35_1109" result="effect2_dropShadow_35_1109"/>
<feBlend mode="normal" in="SourceGraphic" in2="effect2_dropShadow_35_1109" result="shape"/>
</filter>
<linearGradient id="paint0_linear_35_1109" x1="38.2484" y1="47.9216" x2="63.3657" y2="47.9216" gradientUnits="userSpaceOnUse">
<stop stop-color="#EA4569"/>
<stop offset="1" stop-color="#BA2F4D"/>
</linearGradient>
</defs>
</svg>
