<svg width="21" height="21" viewBox="0 0 21 21" fill="none" xmlns="http://www.w3.org/2000/svg">
<path d="M13.2046 14C18.9534 13.9685 21 10.9235 21 8.31253C20.9995 7.61257 20.7591 6.93392 20.3191 6.38959C19.879 5.84526 19.2658 5.46809 18.5815 5.3209C18.7005 4.98228 18.8038 4.67165 18.8729 4.43628C19.0256 3.92435 19.0556 3.38365 18.9605 2.85797C18.8653 2.33228 18.6476 1.83641 18.3251 1.41053C18 0.971176 17.576 0.614547 17.0874 0.369504C16.5988 0.12446 16.0594 -0.00211333 15.5129 2.66911e-05H5.48712C4.94055 -0.00211333 4.40116 0.12446 3.91259 0.369504C3.42402 0.614547 3.00001 0.971176 2.67488 1.41053C2.35236 1.83641 2.1347 2.33228 2.03954 2.85797C1.94437 3.38365 1.97438 3.92435 2.12713 4.43628C2.19625 4.67165 2.30212 4.98228 2.4185 5.3209C1.73419 5.46809 1.12096 5.84526 0.680906 6.38959C0.240855 6.93392 0.000547995 7.61257 0 8.31253C0 10.9235 2.04663 13.9685 7.79538 14C7.84648 14.2657 7.87313 14.5354 7.875 14.8059V17.5C7.89003 17.7337 7.85507 17.968 7.77245 18.1871C7.68982 18.4062 7.56142 18.6052 7.39582 18.7708C7.23022 18.9364 7.03122 19.0648 6.81208 19.1475C6.59295 19.2301 6.35871 19.2651 6.125 19.25H5.25C5.01794 19.25 4.79538 19.3422 4.63128 19.5063C4.46719 19.6704 4.375 19.893 4.375 20.125C4.375 20.3571 4.46719 20.5797 4.63128 20.7437C4.79538 20.9078 5.01794 21 5.25 21H15.75C15.9821 21 16.2046 20.9078 16.3687 20.7437C16.5328 20.5797 16.625 20.3571 16.625 20.125C16.625 19.893 16.5328 19.6704 16.3687 19.5063C16.2046 19.3422 15.9821 19.25 15.75 19.25H14.882C14.6478 19.2658 14.4129 19.2314 14.1931 19.1492C13.9732 19.0669 13.7734 18.9387 13.6071 18.773C13.4408 18.6073 13.3118 18.4081 13.2286 18.1886C13.1455 17.969 13.1101 17.7343 13.125 17.5V14.805C13.1269 14.5348 13.1536 14.2654 13.2046 14ZM17.9375 7.00003C18.2856 7.00003 18.6194 7.13831 18.8656 7.38445C19.1117 7.63059 19.25 7.96443 19.25 8.31253C19.25 10.0923 17.8421 11.9875 13.9685 12.2238C14.1622 11.9594 14.386 11.7183 14.6353 11.5054C16.03 10.2489 17.1416 8.71016 17.8964 6.99128C17.9104 6.99215 17.9226 7.00003 17.9375 7.00003ZM1.75 8.31253C1.75 7.96443 1.88828 7.63059 2.13442 7.38445C2.38056 7.13831 2.7144 7.00003 3.0625 7.00003C3.07737 7.00003 3.08962 6.99215 3.10362 6.99128C3.85836 8.71016 4.96999 10.2489 6.36475 11.5054C6.61402 11.7183 6.83776 11.9594 7.0315 12.2238C3.15788 11.9875 1.75 10.0923 1.75 8.31253ZM9.19887 19.25C9.48815 18.7127 9.63486 18.1102 9.625 17.5V14.8059C9.62804 13.9255 9.43933 13.055 9.072 12.2549C8.70467 11.4548 8.16752 10.7443 7.49788 10.1728C5.71859 8.47226 4.44118 6.31521 3.80538 3.93753C3.73066 3.68656 3.71629 3.42148 3.76342 3.16391C3.81056 2.90633 3.91787 2.66352 4.07662 2.45528C4.23985 2.23524 4.4526 2.05673 4.69765 1.9342C4.9427 1.81168 5.21316 1.74858 5.48712 1.75003H15.5129C15.7871 1.74899 16.0578 1.81262 16.3029 1.93576C16.5479 2.05891 16.7605 2.23809 16.9234 2.45878C17.0821 2.66702 17.1894 2.90983 17.2366 3.16741C17.2837 3.42498 17.2693 3.69006 17.1946 3.94103C16.5582 6.31745 15.2809 8.47323 13.5021 10.1728C12.8325 10.7442 12.2954 11.4545 11.928 12.2545C11.5607 13.0544 11.372 13.9248 11.375 14.805V17.5C11.3651 18.1102 11.5118 18.7127 11.8011 19.25H9.19887Z" fill="#FF6060"/>
</svg>
