<svg width="18" height="18" viewBox="0 0 18 18" fill="none" xmlns="http://www.w3.org/2000/svg">
<path d="M12.375 0C12.0766 0 11.7905 0.118526 11.5795 0.329505C11.3685 0.540483 11.25 0.826631 11.25 1.125C11.25 2.11275 10.992 3 7.875 3H3.375C2.4802 3.00099 1.62233 3.35689 0.989611 3.98961C0.356891 4.62233 0.00099257 5.4802 0 6.375L0 8.625C0.00205377 9.23305 0.168922 9.82916 0.482848 10.3499C0.796773 10.8706 1.24601 11.2965 1.78275 11.5822L4.16625 16.902C4.31166 17.2287 4.54864 17.5064 4.84853 17.7012C5.14842 17.8961 5.49836 17.9999 5.856 18C6.12954 17.9998 6.3987 17.9313 6.63905 17.8007C6.8794 17.6702 7.08333 17.4816 7.23234 17.2522C7.38134 17.0228 7.4707 16.7599 7.49229 16.4872C7.51389 16.2145 7.46704 15.9407 7.356 15.6908L5.66325 12H7.875C10.992 12 11.25 12.8872 11.25 13.875C11.25 14.1734 11.3685 14.4595 11.5795 14.6705C11.7905 14.8815 12.0766 15 12.375 15C12.6734 15 12.9595 14.8815 13.1705 14.6705C13.3815 14.4595 13.5 14.1734 13.5 13.875V1.125C13.5 0.826631 13.3815 0.540483 13.1705 0.329505C12.9595 0.118526 12.6734 0 12.375 0ZM11.25 10.2833C10.1712 9.8846 9.02416 9.70337 7.875 9.75H3.375C3.07663 9.75 2.79048 9.63147 2.57951 9.4205C2.36853 9.20952 2.25 8.92337 2.25 8.625V6.375C2.25 6.07663 2.36853 5.79048 2.57951 5.5795C2.79048 5.36853 3.07663 5.25 3.375 5.25H7.875C9.02416 5.29663 10.1712 5.1154 11.25 4.71675V10.2833ZM17.8815 11.7533C17.8154 11.8855 17.724 12.0033 17.6124 12.1002C17.5007 12.197 17.3711 12.2709 17.2309 12.3177C17.0907 12.3644 16.9426 12.3831 16.7952 12.3726C16.6478 12.3621 16.5039 12.3226 16.3718 12.2565L15.6218 11.8815C15.3548 11.748 15.1518 11.514 15.0574 11.2309C14.9631 10.9477 14.985 10.6387 15.1185 10.3717C15.252 10.1048 15.486 9.90182 15.7691 9.80745C16.0523 9.71307 16.3613 9.73503 16.6283 9.8685L17.3783 10.2435C17.5105 10.3096 17.6283 10.401 17.7252 10.5126C17.822 10.6243 17.8959 10.7539 17.9427 10.8941C17.9894 11.0343 18.0081 11.1824 17.9976 11.3298C17.9871 11.4772 17.9476 11.6211 17.8815 11.7533ZM15.1185 4.62825C15.0524 4.49608 15.0129 4.35218 15.0024 4.20477C14.9919 4.05735 15.0106 3.90931 15.0573 3.76911C15.1041 3.62891 15.178 3.49928 15.2748 3.38765C15.3717 3.27602 15.4895 3.18456 15.6218 3.1185L16.3718 2.7435C16.6387 2.61003 16.9477 2.58807 17.2309 2.68245C17.514 2.77682 17.748 2.97981 17.8815 3.24675C18.015 3.51369 18.0369 3.82272 17.9426 4.10585C17.8482 4.38898 17.6452 4.62303 17.3783 4.7565L16.6283 5.1315C16.4961 5.19763 16.3522 5.23707 16.2048 5.24756C16.0574 5.25806 15.9093 5.23941 15.7691 5.19267C15.6289 5.14594 15.4993 5.07204 15.3877 4.97519C15.276 4.87835 15.1846 4.76045 15.1185 4.62825ZM15 7.5C15 7.20163 15.1185 6.91548 15.3295 6.7045C15.5405 6.49353 15.8266 6.375 16.125 6.375H16.875C17.1734 6.375 17.4595 6.49353 17.6705 6.7045C17.8815 6.91548 18 7.20163 18 7.5C18 7.79837 17.8815 8.08452 17.6705 8.2955C17.4595 8.50647 17.1734 8.625 16.875 8.625H16.125C15.8266 8.625 15.5405 8.50647 15.3295 8.2955C15.1185 8.08452 15 7.79837 15 7.5Z" fill="#E47F7F"/>
</svg>
