<svg width="308" height="70" viewBox="0 0 308 70" fill="none" xmlns="http://www.w3.org/2000/svg">
<g clip-path="url(#clip0_1812_277)">
<rect width="308" height="70" rx="29" fill="url(#paint0_linear_1812_277)"/>
<g filter="url(#filter0_d_1812_277)">
<path d="M39 20C36.0333 20 33.1332 20.8797 30.6665 22.528C28.1997 24.1762 26.2771 26.5189 25.1418 29.2597C24.0065 32.0006 23.7094 35.0166 24.2882 37.9264C24.867 40.8361 26.2956 43.5088 28.3934 45.6066C30.4912 47.7044 33.1639 49.133 36.0737 49.7118C38.9834 50.2906 41.9994 49.9935 44.7403 48.8582C47.4811 47.7229 49.8238 45.8003 51.472 43.3335C53.1203 40.8668 54 37.9667 54 35C53.9957 31.0231 52.414 27.2103 49.6019 24.3981C46.7897 21.586 42.9769 20.0043 39 20ZM43.0275 28.75H34.9725C36.0335 26.6553 37.3898 24.7239 39 23.015C40.6108 24.7235 41.9672 26.6549 43.0275 28.75ZM44.0275 31.25C44.4117 32.4633 44.6122 33.7273 44.6225 35C44.6122 36.2727 44.4117 37.5367 44.0275 38.75H33.97C33.5858 37.5367 33.3853 36.2727 33.375 35C33.3853 33.7273 33.5858 32.4633 33.97 31.25H44.0275ZM35.75 22.945C34.3096 24.7072 33.1207 26.6609 32.2175 28.75H28.1913C29.8486 25.8955 32.5646 23.8097 35.75 22.945ZM26.5 35C26.4999 33.7279 26.6942 32.4633 27.0763 31.25H31.375C31.051 32.4739 30.883 33.7339 30.875 35C30.883 36.2661 31.051 37.5261 31.375 38.75H27.0763C26.6942 37.5367 26.4999 36.2721 26.5 35ZM28.1913 41.25H32.2175C33.1207 43.3391 34.3096 45.2928 35.75 47.055C32.5646 46.1903 29.8486 44.1045 28.1913 41.25ZM34.9725 41.25H43.0275C41.9665 43.3447 40.6102 45.276 39 46.985C37.3892 45.2765 36.0328 43.345 34.9725 41.25ZM42.2563 47.055C43.6945 45.2924 44.8812 43.3388 45.7825 41.25H49.8088C48.1529 44.1032 45.4394 46.1888 42.2563 47.055ZM51.5 35C51.5001 36.2721 51.3058 37.5367 50.9238 38.75H46.625C46.9491 37.5261 47.1171 36.2661 47.125 35C47.1171 33.7339 46.9491 32.4739 46.625 31.25H50.9213C51.3041 32.4632 51.4993 33.7278 51.5 35ZM45.7825 28.75C44.8812 26.6612 43.6945 24.7076 42.2563 22.945C45.4394 23.8112 48.1529 25.8968 49.8088 28.75H45.7825Z" fill="#FF2828"/>
</g>
<g filter="url(#filter1_d_1812_277)">
<path d="M265.14 29.68V32.23H262.14L260.49 39.01H262.98V41.56H259.86L258.75 46H255.75L256.89 41.56H252.57L251.43 46H248.46L249.57 41.56H247.2V39.01H250.2L251.85 32.23H249.36V29.68H252.48L253.65 25H256.62L255.48 29.68H259.8L260.94 25H263.94L262.77 29.68H265.14ZM253.08 39.04H257.55L259.23 32.2H254.79L253.08 39.04ZM276.112 37.3C273.922 38.23 272.452 39.1 271.702 39.85C270.952 40.63 270.502 41.74 270.412 43.21H282.262V46H267.322C267.322 42.82 267.832 40.48 268.822 38.98C269.812 37.48 271.702 36.16 274.552 35.02C277.882 33.67 279.382 32.23 279.382 30.4C279.382 28.6 277.702 27.43 275.182 27.43C273.202 27.43 271.342 28.18 269.632 29.68L267.862 27.67C270.052 25.69 272.542 24.7 275.272 24.7C277.342 24.7 279.022 25.24 280.342 26.29C281.662 27.34 282.322 28.69 282.322 30.34C282.322 33.19 280.252 35.53 276.112 37.3Z" fill="#FF2828"/>
</g>
</g>
<rect x="0.5" y="0.5" width="307" height="69" rx="28.5" stroke="#FF8E8E" stroke-opacity="0.05"/>
<defs>
<filter id="filter0_d_1812_277" x="-11.6" y="-15.6" width="101.2" height="101.2" filterUnits="userSpaceOnUse" color-interpolation-filters="sRGB">
<feFlood flood-opacity="0" result="BackgroundImageFix"/>
<feColorMatrix in="SourceAlpha" type="matrix" values="0 0 0 0 0 0 0 0 0 0 0 0 0 0 0 0 0 0 127 0" result="hardAlpha"/>
<feOffset/>
<feGaussianBlur stdDeviation="17.8"/>
<feComposite in2="hardAlpha" operator="out"/>
<feColorMatrix type="matrix" values="0 0 0 0 1 0 0 0 0 0.156863 0 0 0 0 0.156863 0 0 0 1 0"/>
<feBlend mode="normal" in2="BackgroundImageFix" result="effect1_dropShadow_1812_277"/>
<feBlend mode="normal" in="SourceGraphic" in2="effect1_dropShadow_1812_277" result="shape"/>
</filter>
<filter id="filter1_d_1812_277" x="211.6" y="-10.9" width="106.322" height="92.5" filterUnits="userSpaceOnUse" color-interpolation-filters="sRGB">
<feFlood flood-opacity="0" result="BackgroundImageFix"/>
<feColorMatrix in="SourceAlpha" type="matrix" values="0 0 0 0 0 0 0 0 0 0 0 0 0 0 0 0 0 0 127 0" result="hardAlpha"/>
<feOffset/>
<feGaussianBlur stdDeviation="17.8"/>
<feComposite in2="hardAlpha" operator="out"/>
<feColorMatrix type="matrix" values="0 0 0 0 1 0 0 0 0 0.156863 0 0 0 0 0.156863 0 0 0 1 0"/>
<feBlend mode="normal" in2="BackgroundImageFix" result="effect1_dropShadow_1812_277"/>
<feBlend mode="normal" in="SourceGraphic" in2="effect1_dropShadow_1812_277" result="shape"/>
</filter>
<linearGradient id="paint0_linear_1812_277" x1="0" y1="35" x2="308" y2="35" gradientUnits="userSpaceOnUse">
<stop stop-color="#411313"/>
<stop offset="1" stop-color="#120505"/>
</linearGradient>
<clipPath id="clip0_1812_277">
<rect width="308" height="70" rx="29" fill="white"/>
</clipPath>
</defs>
</svg>
