<svg width="18" height="18" viewBox="0 0 18 18" fill="none" xmlns="http://www.w3.org/2000/svg">
<path d="M17.2496 0.749908C16.6294 0.120933 15.7251 -0.13695 14.8665 0.0703763L3.40215 2.48024C1.22503 2.80246 -0.278703 4.82893 0.0434578 7.00643C0.168702 7.853 0.563063 8.63678 1.16819 9.24181L2.39725 10.4719C2.45479 10.5287 2.48696 10.6063 2.4865 10.6872V12.9553C2.48815 14.3663 3.63137 15.5097 5.04213 15.5114H7.30981C7.39076 15.5114 7.46844 15.5435 7.52577 15.6006L8.75484 16.8299C9.498 17.5782 10.5087 17.9993 11.5632 18C11.9984 17.9996 12.4308 17.9285 12.8432 17.7892C14.2665 17.3165 15.3008 16.0802 15.5151 14.5956L17.9245 3.16505C18.141 2.29728 17.8845 1.37966 17.2496 0.749908ZM2.34104 5.86964C2.54485 5.23986 3.09483 4.78509 3.75159 4.70335C3.7781 4.69983 3.80432 4.69533 3.83033 4.68984L13.8204 2.58976L4.73621 11.6704V10.6871C4.73786 10.0088 4.46776 9.35804 3.98633 8.88028L2.75875 7.65099C2.28593 7.18845 2.12311 6.49422 2.34104 5.86964ZM13.306 14.1711C13.3 14.1973 13.2962 14.2235 13.2925 14.2498C13.1622 15.1999 12.2867 15.8645 11.3368 15.7342C10.9615 15.6827 10.6133 15.5099 10.3454 15.2421L9.11707 14.0135C8.63915 13.5319 7.98829 13.2618 7.30984 13.2635H6.32673L15.4087 4.17759L13.306 14.1711Z" fill="#100B0B"/>
</svg>
