<svg width="23" height="23" viewBox="0 0 23 23" fill="none" xmlns="http://www.w3.org/2000/svg">
<circle cx="11.5" cy="11.5" r="11.5" fill="#292626"/>
<path d="M12.1222 6.17438C12.696 5.60625 13.5073 4.69938 13.8323 3.83438C13.983 3.43375 13.6805 3 13.2727 3H9.72727C9.31955 3 9.017 3.43313 9.16768 3.83438C9.49268 4.69938 10.304 5.60625 10.8778 6.17438C7.69986 6.67375 5 10.8863 5 14.25C5 16.3181 6.59014 18 8.54545 18H14.4545C16.4099 18 18 16.3181 18 14.25C18 10.8863 15.3001 6.67375 12.1222 6.17438Z" fill="#C3C3C3"/>
<path d="M9.86 13.459V14.086H12.28V14.856H9.86V16H8.43V14.856H7.33V14.086H8.43V8.3H11.598C12.6247 8.3 13.424 8.52 13.996 8.96C14.5753 9.4 14.865 10.0417 14.865 10.885C14.865 11.721 14.5753 12.359 13.996 12.799C13.424 13.239 12.6247 13.459 11.598 13.459H9.86ZM13.424 10.896C13.424 10.4487 13.2663 10.1077 12.951 9.873C12.6357 9.631 12.181 9.51 11.587 9.51H9.86V12.304H11.587C12.1737 12.304 12.6247 12.183 12.94 11.941C13.2627 11.6917 13.424 11.3433 13.424 10.896Z" fill="#292626"/>
</svg>
